<svg xmlns="http://www.w3.org/2000/svg" width="31" height="30">
    <path fill="#FFF" fill-rule="evenodd" d="M25.663 4.325l1.118.039c.309 0 .716-.028.959.04h1.518c.403.145.714.454.758.961h-.04l-.04.239h-.04v.121l-.079.04v.08l-.959.92-2.795 2.84H21.79l-.959 1-.199.16c-.278.385-.629.67-.959 1l-1.318 1.361c-.265.192-.49.411-.719.64l-2.036 2.08h-.12l-.04.08-.2.04v.04c-.231.074-.65-.087-.758-.16l-.2-.24-.08-.04-.04-.16h-.04v-.08h-.04v-.08h-.04v-.48h.04l.04-.16h.04v-.12l.08-.04v-.08h.04c.057-.071.091-.096.12-.2h.08c.028-.124.077-.17.199-.2v-.081h.08v-.079h.08v-.08h.08v-.08h.08c.029-.111.011-.09.12-.12v-.08h.079v-.081h.08v-.079h.08v-.08h.08v-.08h.08c.029-.111.011-.09.12-.121v-.079h.08v-.08h.079v-.081h.08v-.08h.08v-.08h.08c.029-.11.011-.089.12-.119v-.081h.08v-.079h.08v-.081h.079v-.08h.08v-.08h.08c.029-.11.011-.089.12-.119v-.081h.08v-.079h.08c.052-.198.416-.458.559-.601v-.04l1.318-1.28c.137-.138.365-.468.559-.52v-.08h.08v-.08h.08v-.08h.079c.029-.11.011-.09.12-.12v-.08h.08v-.08h.08v-.08h.08v-.08h.08v-.08c.11-.029.089-.011.119-.12h.08v-.08h.08v-.08h.08v-.08h.08c.079-.443.04-1.052.04-1.56V3.884c.097-.056.13-.15.2-.199.34-.247.587-.549.878-.841l2.037-2 .559-.6h.08l.04-.08h.08l.04-.08c.067-.042.381-.124.519-.08v.04h.119v.04h.08l.04.08h.12v.04l.24.2v.08h.04v.08h.04v.12h.039v.68c.069.247-.03.667.04.92h.04v2.041zm-7.348 1.76l-.359-.12v-.04l-.24-.04v-.04h-.08v-.04l-.239-.04v-.04h-.12v-.04l-.279-.04v-.041l-.28-.039v-.04l-1.558-.281h-.519v-.039c-.207-.058-1.122-.004-1.278.039h-.519v.041h-.319v.039h-.28v.041h-.199v.04h-.24v.039h-.16v.041l-.359.04-1.438.48v.04l-.16.04v.039H9.61v.041h-.12v.04l-.24.08v.04h-.08v.04h-.08v.04l-.239.08-.04.08-.24.08-.04.08-.159.04-.04.08-.16.04v.04l-.12.04-.04.079h-.08l-.08.121h-.079l-.04.08h-.08l-.08.12h-.08l-.08.12h-.08l-.119.16h-.08l-.2.24h-.08l-.279.32-.679.64v.08l-.24.2v.08l-.16.12v.08l-.12.08v.08l-.119.08v.08l-.08.04v.08l-.12.08v.08l-.08.04v.08l-.08.04-.04.16-.08.04-.04.16-.079.04-.08.24-.08.04v.08h-.04v.08h-.04v.08h-.04v.08h-.04v.08h-.04l-.08.24h-.04v.12h-.04v.081h-.039v.079h-.04v.08h-.04v.121h-.04v.08h-.04l-.04.239h-.04v.08h-.04l-.399 1.441-.08.72H3.3v.32h-.04v.52h-.04c-.058.207-.004 1.125.04 1.28v.52h.04v.32h.04v.28h.04v.2h.04v.24h.04v.16h.04v.2h.039v.16h.04l.04.28h.04v.12h.04v.16h.04v.12h.04v.12h.04v.12h.04v.08h.04l.04.24h.04v.08h.04v.12h.04l.04.16h.039v.081h.04v.119h.04l.08.241h.04v.079h.04v.081h.04l.08.239.08.04.08.24.079.041.04.16.08.04.04.16.08.039v.081h.04l.04.12.08.04v.08l.12.08v.08l.119.08v.08l.12.08v.08l.16.12v.08l.24.2v.08l.679.64.279.32h.08l.2.24h.08l.119.16h.08l.08.12h.08l.08.12h.08l.08.12h.079l.04.08h.08l.04.08.12.04v.04l.16.04.04.08.159.04.04.08.24.08.04.08h.08v.04h.08v.04h.079v.04h.08v.04h.08v.04h.08v.04l.24.08v.04l.199.04v.04h.08v.04h.12v.04h.08v.04l.239.04v.04h.08v.04l.36.08v.04h.159v.04h.12v.04l.28.04v.04h.16v.04l.359.04v.04h.24v.04h.199v.04h.28v.04l.838.04v.04c.208.058 1.123.004 1.278-.04l.839-.04v-.04h.279v-.04h.2v-.04h.24v-.04h.16v-.04l.359-.04v-.04h.12v-.04h.16v-.04h.119v-.04h.16v-.04h.12v-.04h.12v-.04h.119v-.04h.08v-.04l.24-.04v-.04h.08v-.04h.12v-.04l.159-.04v-.04h.08v-.04h.12v-.04l.24-.08v-.04h.08v-.04h.079v-.04l.24-.08.04-.08.24-.08.039-.08.16-.04.04-.08.16-.04.04-.08h.08v-.04l.119-.04.04-.08h.08l.04-.08.12-.04.08-.12h.08l.08-.12h.079l.12-.16h.08l.2-.24h.08l.399-.441.559-.519v-.08l.24-.2v-.08l.16-.12v-.08l.119-.08v-.08l.12-.08.04-.121.08-.039v-.08l.08-.04.04-.12h.04v-.081l.08-.039.04-.16.079-.04.04-.16.08-.041.08-.24.08-.04v-.08h.04v-.08h.04v-.079h.04v-.081h.04v-.079h.04v-.081h.04l.079-.24h.04v-.12h.04l.04-.16h.04l.479-1.44.04-.36h.04v-.16h.04v-.24h.04v-.2h.04l.08-.72v-.4h.04c.058-.208.003-1.125-.04-1.28l-.04-.84h-.04v-.281h-.04v-.199h-.04v-.24h-.04l-.04-.36h-.04v-.16h-.04l-.04-.281h-.039v-.119h-.04v-.16h-.04v-.121h-.04v-.119h-.04v-.121h-.04v-.08h-.04l-.04-.239h-.04l-.12-.36c.83.003 1.917.093 2.556-.121l.519-.08v-.039l.12-.041v-.04c.078-.019.053.024.08.04.137.125.125.408.2.6.177.456.252 1.027.399 1.521l.04.52h.04v.28h.04v.4h.04v.52c.084.308.087 1.212 0 1.52v.52h-.04v.4h-.04v.28h-.04v.28c-.056.188-.103.458-.16.64v.2h-.04v.16h-.04v.16h-.04v.16h-.04v.16h-.04v.16h-.04v.12h-.039v.12h-.04v.121h-.04l-.04.279h-.04v.081h-.04l-.08.36h-.04v.08h-.04v.119h-.04l-.04.2h-.04v.08h-.04v.121h-.04l-.079.239h-.04v.08h-.04v.121h-.04l-.08.239h-.04v.081h-.04l-.08.24-.08.04v.08h-.04v.08h-.04v.08h-.04v.08l-.079.039-.08.241-.08.04v.079l-.08.041-.04.16-.08.04v.08l-.08.039v.081l-.08.04v.08h-.039l-.04.12-.08.04v.08l-.12.08v.08l-.12.08v.08l-.12.08v.08l-.159.12v.08l-.16.12c-.318.442-.664.745-1.038 1.12l-.4.44h-.08l-.199.24h-.08l-.16.2h-.08l-.12.16h-.079l-.08.12h-.08l-.08.12h-.08l-.08.12h-.08l-.04.08-.119.04v.04h-.08l-.04.08h-.08l-.04.08h-.08l-.04.08-.16.04-.04.081-.119.039v.04h-.08v.04h-.08v.041h-.08l-.04.079h-.08v.041h-.08v.039h-.08v.04h-.079l-.04.08-.24.081v.039h-.08v.04l-.239.08v.04h-.12v.04h-.08v.041l-.24.08v.039h-.119v.04h-.08v.04h-.12v.04h-.08v.04h-.12v.04h-.08v.04l-.359.081v.039h-.08v.041l-.279.039v.04h-.12v.04h-.12v.04h-.12v.04h-.16v.04h-.159v.04h-.16v.04h-.16v.04h-.16v.041h-.199v.039h-.2v.04h-.2v.04h-.239v.041l-.559.039v.04l-1.598.081-1.397-.04v-.041h-.36v-.04h-.319l-1.877-.4c-.951-.342-1.924-.661-2.716-1.16h-.08v-.04h-.08v-.039h-.079v-.041h-.08l-.04-.079-.24-.081v-.04l-.12-.039-.04-.081-.159-.04v-.04l-.12-.04-.04-.08h-.08l-.04-.08h-.08v-.04l-.12-.04-.04-.08h-.079l-.08-.12h-.08l-.08-.12h-.08l-.08-.12h-.08l-.119-.16h-.08l-.08-.12h-.04l-.04-.08h-.08l-.2-.24h-.079l-.48-.52-.679-.64v-.08l-.239-.2v-.08l-.2-.16v-.08l-.16-.12v-.08l-.119-.08v-.08l-.12-.08v-.08l-.12-.08v-.08l-.08-.04-.04-.12h-.04v-.08l-.08-.04v-.081l-.079-.039v-.08l-.08-.04-.04-.16-.08-.041-.04-.119h-.04l-.08-.241-.08-.039v-.08h-.04v-.08h-.04v-.08h-.04v-.08c-.496-.793-.819-1.768-1.158-2.721l-.04-.32h-.04v-.16H.425v-.16h-.04v-.16h-.04v-.2h-.04l-.04-.4h-.04v-.24h-.04v-.28h-.04l-.04-.68h-.04v-.52c-.085-.309-.087-1.212 0-1.52v-.52h.04l.04-.68h.04v-.28c.055-.189.103-.458.16-.64v-.2h.04v-.161h.04v-.16h.039v-.16h.04v-.16h.04v-.16h.04v-.12h.04v-.12h.04v-.12h.04v-.16h.04v-.12h.04v-.08h.04l.08-.36h.04v-.08h.04v-.12h.04v-.08h.04v-.12h.039v-.08h.04v-.12h.04l.08-.24h.04v-.08h.04v-.12h.04l.08-.24h.04v-.08h.04l.08-.24.079-.04v-.08h.04v-.08h.04v-.08h.04v-.08l.08-.04.08-.24h.04l.04-.12.08-.04.04-.16h.04l.04-.12.079-.04v-.08h.04l.04-.12.08-.04v-.08l.12-.08v-.08l.08-.04v-.08l.12-.08v-.08l.119-.08v-.08l.16-.12v-.08l.12-.08v-.04l.08-.041v-.079l.239-.2v-.08l.599-.561.56-.599h.079l.2-.24h.08l.16-.201h.08l.119-.16h.08c.027-.04.054-.079.08-.12h.08l.08-.119h.08l.04-.08h.08l.079-.12h.08l.04-.081h.08l.04-.079h.08l.04-.08h.08l.04-.08.159-.04.04-.08.12-.041v-.039h.08v-.04h.08v-.041h.08l.04-.079h.08v-.04h.079v-.041h.08v-.039h.08l.04-.08h.08v-.041l.24-.08v-.039l.239-.081v-.04h.12v-.04h.08v-.04l.239-.08v-.04h.12v-.04h.08v-.04h.12v-.04h.08v-.04h.12v-.04h.079v-.039l.36-.081v-.04h.08v-.04l.279-.04v-.04h.12v-.04h.12v-.04h.12v-.04l.319-.04v-.04h.16v-.04h.16v-.039h.159v-.041h.2v-.04l.399-.04v-.04h.24v-.04h.28v-.04h.279v-.04h.36v-.04h.559c.307-.085 1.21-.087 1.517 0h.559v.04h.36v.04h.279v.04h.28v.04l.439.04v.04l.399.04v.041l.32.039v.04h.16v.04h.159v.04h.16v.04h.12v.04h.12v.04h.12v.04h.159v.04h.12v.04l.2.04v.04c-.043.028-.184.199-.2.24v.2h-.04v.161h-.04v.16h-.04v.16h-.04v.16h-.04v2.16zm3.435 6.641l.12.4h.039v.12h.04v.119h.04v.12h.04l.04.281h.04l.24 1.24v.44h.04v.6c0 .526-.036 1.069-.16 1.48l-.04.4h-.04l-.04.32h-.04l-.04.28h-.04v.12h-.04v.12h-.04v.12h-.039v.08h-.04v.12h-.04v.08h-.04v.12h-.04l-.04.16h-.04v.08h-.04v.12h-.04l-.04.16h-.04l-.04.16-.08.04-.08.241-.079.039-.04.16h-.04l-.04.12-.08.041v.079h-.04l-.04.121-.08.039v.081l-.12.079v.08l-.119.08v.08l-.2.161v.08l-.399.36-.52.559h-.079l-.16.201h-.08l-.08.12h-.08l-.08.12h-.079l-.04.08-.12.039v.041h-.08l-.04.08-.12.04v.04l-.16.04-.039.08-.24.08-.04.08-.16.039v.041l-.16.04v.04h-.119v.04h-.08v.039l-.16.041v.04h-.12v.04h-.08v.039l-.199.041v.04h-.12v.04h-.12v.04h-.12v.04l-.279.04v.04l-.32.04v.04h-.199v.04h-.2v.04h-.24v.04h-.279v.04h-.44c-.436.122-1.466.028-1.836-.08h-.24l-1.358-.36v-.04h-.08v-.041h-.12v-.039h-.079v-.04h-.12v-.04l-.16-.041v-.039h-.08v-.04l-.359-.121-.04-.079h-.08v-.04h-.08v-.041h-.08v-.039h-.08l-.04-.08-.159-.04-.04-.08h-.08l-.04-.08h-.08v-.041l-.12-.039-.04-.08h-.08l-.079-.12h-.08l-.08-.12h-.08l-.16-.201h-.08l-.679-.719-.239-.2v-.08l-.2-.161v-.08l-.12-.08v-.08l-.119-.079v-.081l-.08-.039v-.081l-.08-.04v-.079l-.08-.041v-.079l-.08-.041-.04-.16-.08-.039v-.081h-.04v-.079h-.04v-.081h-.04v-.08l-.079-.04-.12-.36h-.04v-.08h-.04l-.04-.16h-.04v-.12h-.04v-.08h-.04v-.12h-.04v-.08h-.04v-.12h-.04v-.12h-.04v-.12h-.04v-.16h-.039v-.12h-.04l-.24-1.24v-.44h-.04c-.054-.194 0-.979.04-1.12v-.44c.081-.285.112-.651.2-.92v-.16h.04v-.16h.04v-.12h.039v-.161h.04v-.12h.04v-.119h.04v-.12h.04v-.08h.04v-.12h.04v-.08h.04v-.12h.04l.04-.161h.04v-.079h.04v-.121h.04l.04-.16h.04v-.08l.079-.04v-.08h.04v-.08h.04v-.08h.04v-.08l.08-.04.04-.16h.04l.04-.119.08-.041v-.079h.04l.04-.121.08-.04v-.08l.119-.08v-.08l.12-.08v-.08l.2-.16v-.08l.479-.44.439-.48h.08l.16-.2h.08l.08-.12h.08l.079-.12h.08l.04-.08.12-.04v-.04h.08l.04-.08.12-.04v-.04l.159-.04.04-.08.24-.08v-.04h.08l.04-.08.359-.12v-.04h.08v-.04l.16-.04v-.04h.12v-.04h.079v-.04h.12v-.04h.08v-.04h.12v-.04h.12v-.04h.119v-.04l.28-.04v-.04h.16v-.04h.16v-.04h.199v-.04h.2v-.04h.24v-.04h.279v-.04h.439c.141-.039.926-.094 1.118-.04v.04h.44v.04h.279v.04h.24v.04h.2v.04l.359.04v.04h.16v.04l.279.04v.04h.12v.04h.12v.04h.12v.04h.08v.04c.147.064.3.049.399.16h-.04c-.061.107-.157.157-.24.24l-.479.48-.439.48-.2.16v.08l-.12.04-.04.08-.199.16-.2.28h-.08l-.479.52h-.399c-.05-.045-.75-.077-.879-.04v.04h-.359v.04h-.2v.04h-.2v.04h-.159v.04h-.12v.04h-.16v.04h-.08v.04l-.239.04v.04l-.16.04v.04h-.12v.041h-.08v.039h-.08l-.04.081-.239.079-.04.08-.16.04c-.026.041-.053.08-.08.12h-.08l-.04.08h-.079l-.12.16c-.747.539-1.254 1.34-1.638 2.24l-.04.281h-.039v.12h-.04v.16h-.04v.2c-.164.54-.167 1.46 0 2l.04.36h.04v.12h.039l.04.28h.04v.08h.04v.12h.04l.04.16h.04l.12.36.08.04.04.16.08.04.039.16.12.08.04.12h.04v.08l.16.12c.65.906 1.612 1.426 2.795 1.8h.2v.041h.2v.039h.359v.04c.196.055.74 0 .879-.04h.359v-.039h.2v-.041h.199v-.039h.16v-.041h.12v-.039h.16v-.04h.08v-.04l.239-.041v-.039l.16-.04v-.041l.359-.119.04-.081.16-.039.04-.08h.08v-.041h.08l.08-.119h.079l.04-.081h.08l.12-.16h.08l.359-.4.28-.24v-.08l.16-.12v-.08l.08-.04v-.08l.119-.08v-.08h.04v-.08l.08-.04.04-.16.08-.04v-.08h.04l.04-.16h.04v-.12h.04l.04-.16h.04l.039-.2h.04l.04-.28h.04v-.12h.04v-.16h.04v-.2h.04v-.2h.04v-.36c.103-.369 0-.846 0-1.24l.28-.2.039-.12.48-.4v-.081h.04l.159-.199h.08l.04-.08h.04l.359-.44h.08l.08-.12.08-.04v-.08l.24-.2.04-.081h.079l.08-.119.08-.041v-.079h.04l.16-.2h.12z"/>
</svg>
